<svg xmlns="http://www.w3.org/2000/svg" width="24" height="34" viewBox="0 0 24 34">
  <path fill="#FFF" d="M16.9644585,0.0240883944 L14.1034713,2.88906957 C17.8697182,6.62817663 19.9878702,11.7158108 19.9878702,17.0229322 C19.9878702,22.3300536 17.8697182,27.4176877 14.1034713,31.1567948 L16.9644585,34.0217759 C26.3047142,24.6137644 26.3047142,9.43209996 16.9644585,0.0240883944 L16.9644585,0.0240883944 Z M11.3609708,5.75271938 L8.49598959,8.61770055 C13.2288,13.350511 13.2288,20.821828 8.49598959,25.553307 L11.3609708,28.4182882 C17.5888434,22.067935 17.5888434,11.9792607 11.3609708,5.75271938 Z M5.75615168,11.3575385 L0.0288519887,16.9596949 L5.63100845,22.5671766 C8.87008797,19.5770522 8.87008797,14.4701434 5.75615168,11.3575385 Z" transform="matrix(-1 0 0 1 23.999 0)"/>
</svg>
