<svg xmlns="http://www.w3.org/2000/svg" width="25" height="25" viewBox="0 0 25 25">
  <path fill-rule="evenodd" d="M40.1157891,77.1390449 L53.1390449,77.1390449 C53.9610501,77.1390449 54.627417,77.8054118 54.627417,78.627417 C54.627417,79.4494222 53.9610501,80.1157891 53.1390449,80.1157891 L40.1157891,80.1157891 L40.1157891,93.1390449 C40.1157891,93.9610501 39.4494222,94.627417 38.627417,94.627417 C37.8054118,94.627417 37.1390449,93.9610501 37.1390449,93.1390449 L37.1390449,80.1157891 L24.1157891,80.1157891 C23.2937839,80.1157891 22.627417,79.4494222 22.627417,78.627417 C22.627417,77.8054118 23.2937839,77.1390449 24.1157891,77.1390449 L37.1390449,77.1390449 L37.1390449,64.1157891 C37.1390449,63.2937839 37.8054118,62.627417 38.627417,62.627417 C39.4494222,62.627417 40.1157891,63.2937839 40.1157891,64.1157891 L40.1157891,77.1390449 Z" transform="rotate(45 105.296 14.243)"/>
</svg>
