<svg xmlns="http://www.w3.org/2000/svg" width="54" height="51" viewBox="0 0 54 51">
  <path fill="#8256F5" d="M49.5675191,0 L4.23640629,0 C1.89580857,0 -0.00270637951,1.84427165 2.89609956e-06,4.11706524 L2.89609956e-06,38.9900728 C2.89609956e-06,41.2628664 1.9039451,42.5972512 4.24725495,42.5972512 L17.6019516,42.5972512 L24.9058098,50.158765 L24.9139463,50.1669015 C26.036537,51.2427299 27.8082704,51.2403357 28.9279494,50.1614772 L36.1965495,42.5945391 L49.5648069,42.5945391 C51.9162533,42.5945391 53.8147711,41.2628664 53.8147711,38.9873606 L53.8147711,4.11706524 C53.8174804,1.84427165 51.9135411,0 49.5675191,0 Z M11.0927574,25.4862072 C8.77385704,25.4862072 6.88890293,23.6582085 6.88890293,21.4071121 C6.88890293,19.158728 8.77385704,17.3307294 11.0927574,17.3307294 C13.4116578,17.3307294 15.296612,19.1614402 15.296612,21.4071121 C15.296612,23.6582085 13.4116579,25.4862072 11.0927574,25.4862072 Z M26.907387,25.4862072 C24.5911988,25.4862072 22.7035325,23.6582085 22.7035325,21.4071121 C22.7035325,19.158728 24.5884866,17.3307294 26.907387,17.3307294 C29.2262874,17.3307294 31.1112415,19.1614402 31.1112415,21.4071121 C31.1112415,23.6582085 29.2262874,25.4862072 26.907387,25.4862072 Z M42.7220166,25.4862072 C40.4058283,25.4862072 38.518162,23.6582085 38.518162,21.4071121 C38.518162,19.158728 40.4031161,17.3307294 42.7220166,17.3307294 C45.040917,17.3307294 46.9258711,19.1614402 46.9258711,21.4071121 C46.9258711,23.6582085 45.040917,25.4862072 42.7220166,25.4862072 Z"/>
</svg>
