<svg xmlns="http://www.w3.org/2000/svg" width="60" height="60" viewBox="0 0 60 60">
  <g fill="none" fill-rule="evenodd">
    <circle cx="30" cy="30" r="28" fill="#FFF" stroke="#B2B2B2" stroke-width="4"/>
    <path fill="#B2B2B2" d="M32,28 L42.0087557,28 C43.1084896,28 44,28.8877296 44,30 C44,31.1045695 43.1001025,32 42.0087557,32 L32,32 L32,42.0087557 C32,43.1084896 31.1122704,44 30,44 C28.8954305,44 28,43.1001025 28,42.0087557 L28,32 L17.9912443,32 C16.8915104,32 16,31.1122704 16,30 C16,28.8954305 16.8998975,28 17.9912443,28 L28,28 L28,17.9912443 C28,16.8915104 28.8877296,16 30,16 C31.1045695,16 32,16.8998975 32,17.9912443 L32,28 Z"/>
  </g>
</svg>
