<svg xmlns="http://www.w3.org/2000/svg" width="56" height="48" viewBox="0 0 56 48">
  <g fill="none" fill-rule="evenodd" stroke="#8256F5" stroke-width="4">
    <path d="M4,2 C2.8954305,2 2,2.8954305 2,4 L2,44 C2,45.1045695 2.8954305,46 4,46 L52,46 C53.1045695,46 54,45.1045695 54,44 L54,4 C54,2.8954305 53.1045695,2 52,2 L4,2 Z"/>
    <path fill="#8256F5" stroke-linecap="round" d="M50,45.1013345 L6,45.1013345 C3.790861,45.1013345 2,43.3104735 2,41.1013345 L2,30.2345431 C8.19543319,37.5181979 15.7850052,37.2337974 24.7687161,29.3813414 C33.7524269,21.5288855 43.4961882,21.5288855 54,29.3813414 L54,41.1013345 C54,43.3104735 52.209139,45.1013345 50,45.1013345 Z"/>
    <circle cx="15" cy="17" r="3" fill="#8256F5"/>
  </g>
</svg>
